<svg xmlns="http://www.w3.org/2000/svg" version="1.1" xmlns:xlink="http://www.w3.org/1999/xlink" width="1000" height="1000"><metadata><rdf:RDF xmlns:rdf="http://www.w3.org/1999/02/22-rdf-syntax-ns#" xmlns:dc="http://purl.org/dc/elements/1.1/"><rdf:Description><dc:creator>RealFaviconGenerator</dc:creator><dc:source>https://realfavicongenerator.net</dc:source></rdf:Description></rdf:RDF></metadata><g clip-path="url(#SvgjsClipPath1022)"><rect width="1000" height="1000" fill="#ffffff"></rect><g transform="matrix(4.017857142857143,0,0,4.017857142857143,49.99999999999994,142.41071428571428)"><svg xmlns="http://www.w3.org/2000/svg" version="1.1" viewBox="98 11 224 178" style="enable-background:new 98 11 224 178;" xml:space="preserve" width="224" height="178"><style type="text/css">
  .st0{fill:#142C47;}
  .st1{fill:#D4AE36;}
</style><path class="st0" d="M178.21,55.2l-18.83,13.32c0,0-2.99,1.84-2.99,10.57v51.22c0,0,12.86-5.28,21.82-8.27V55.2z"></path><path class="st0" d="M212.35,11.26l-27.94,21.67v87.2c0,0,15.01-6.28,27.94-7.43V11.26z"></path><path class="st1" d="M222.07,18.99l21.13,18.6v69.98c0,0-19.22,2.68-21.21,3.37L222.07,18.99z"></path><path class="st1" d="M248.95,53.59l15.85,12.98v37.55c0,0-8.61,0.92-15.85,2.64V53.59z"></path><path class="st0" d="M321.83,109.02c0,0-49.46-3.67-115.61,11.64s-98.3,47.08-107.49,67.3h31.24c0,0,17.76-30.85,88.2-54.43
  S321.83,109.02,321.83,109.02z"></path><path class="st1" d="M303,116.53c0,0-39.35,4.36-66.68,18.83s-42.95,34.91-42.95,34.91l1.84,17.69c0,0,7.12-17.46,24.35-31.93
  c17.23-14.47,30.32-20.67,35.37-23.43c5.05-2.76,5.28-0.46,3.22,0.69c-2.07,1.15-40.88,23.89-57.88,54.66h17.46
  c0,0,11.48-28.48,28.94-38.13c0,0-17.23,24.35-22.05,38.13h18.6c0,0-3.45-29.86,11.94-43.87C270.54,130.08,303,116.53,303,116.53z"></path><path class="st1" d="M264.57,139.72v48.23h-15.16V168.2c0,0,0.69-10.57,7.12-18.14C262.96,142.48,264.57,139.72,264.57,139.72z"></path><path class="st0" d="M185.56,157.87l-29.86,20.21v9.88h34.91c0,0-3.9-9.19-4.36-16.54C185.79,164.07,185.56,157.87,185.56,157.87z"></path><path class="st0" d="M189.92,155.8c0,0,12.86-8.04,21.36-11.48c0,0-14.93,14.01-17.92,17.46L189.92,155.8z"></path></svg></g></g><defs><clipPath id="SvgjsClipPath1022"><rect width="1000" height="1000" x="0" y="0" rx="350" ry="350"></rect></clipPath></defs></svg>