<?xml version="1.0" encoding="utf-8"?>
<!-- Generator: Adobe Illustrator 24.1.1, SVG Export Plug-In . SVG Version: 6.00 Build 0)  -->
<svg version="1.1" id="Layer_1" xmlns="http://www.w3.org/2000/svg" xmlns:xlink="http://www.w3.org/1999/xlink" x="0px" y="0px"
	 viewBox="0 0 425.2 336.93" style="enable-background:new 0 0 425.2 336.93;" xml:space="preserve">
<style type="text/css">
	.st0{fill:#142C47;}
	.st1{fill:#D4AE36;}
</style>
<g>
	<g>
		<path class="st0" d="M178.21,55.2l-18.83,13.32c0,0-2.99,1.84-2.99,10.57v51.22c0,0,12.86-5.28,21.82-8.27V55.2z"/>
		<path class="st0" d="M212.35,11.26l-27.94,21.67v87.2c0,0,15.01-6.28,27.94-7.43V11.26z"/>
		<path class="st1" d="M222.07,18.99l21.13,18.6v69.98c0,0-19.22,2.68-21.21,3.37L222.07,18.99z"/>
		<path class="st1" d="M248.95,53.59l15.85,12.98v37.55c0,0-8.61,0.92-15.85,2.64V53.59z"/>
		<path class="st0" d="M321.83,109.02c0,0-49.46-3.67-115.61,11.64s-98.3,47.08-107.49,67.3h31.24c0,0,17.76-30.85,88.2-54.43
			S321.83,109.02,321.83,109.02z"/>
		<path class="st1" d="M303,116.53c0,0-39.35,4.36-66.68,18.83s-42.95,34.91-42.95,34.91l1.84,17.69c0,0,7.12-17.46,24.35-31.93
			c17.23-14.47,30.32-20.67,35.37-23.43c5.05-2.76,5.28-0.46,3.22,0.69c-2.07,1.15-40.88,23.89-57.88,54.66h17.46
			c0,0,11.48-28.48,28.94-38.13c0,0-17.23,24.35-22.05,38.13h18.6c0,0-3.45-29.86,11.94-43.87C270.54,130.08,303,116.53,303,116.53z
			"/>
		<path class="st1" d="M264.57,139.72v48.23h-15.16V168.2c0,0,0.69-10.57,7.12-18.14C262.96,142.48,264.57,139.72,264.57,139.72z"/>
		<path class="st0" d="M185.56,157.87l-29.86,20.21v9.88h34.91c0,0-3.9-9.19-4.36-16.54C185.79,164.07,185.56,157.87,185.56,157.87z
			"/>
		<path class="st0" d="M189.92,155.8c0,0,12.86-8.04,21.36-11.48c0,0-14.93,14.01-17.92,17.46L189.92,155.8z"/>
	</g>
	<g>
		<path class="st0" d="M58.99,235.7c-0.36,2.76-1.92,4.91-4.67,6.47c-2.49,1.38-5.59,2.07-9.3,2.07c-4.97,0-8.72-1.42-11.24-4.27
			c-1.86-2.13-2.79-4.73-2.79-7.82c0-2.37,0.55-4.43,1.66-6.2l5.39-1.12c-1.2,2.04-1.8,4.18-1.8,6.43c0,2.52,0.75,4.45,2.25,5.8
			c1.5,1.38,3.67,2.07,6.52,2.07c4.43,0,7.13-1.14,8.09-3.42h-4.31l2.83-5.44h7.51v5.44H58.99z M42,254.18
			c-0.9,0-1.62-0.28-2.16-0.83c-0.54-0.55-0.81-1.28-0.81-2.18c0-0.87,0.27-1.57,0.81-2.11c0.54-0.54,1.26-0.81,2.16-0.81
			c0.9,0,1.61,0.26,2.13,0.79c0.52,0.52,0.79,1.24,0.79,2.14C44.92,253.17,43.95,254.18,42,254.18z M48.92,254.18
			c-0.9,0-1.62-0.27-2.16-0.81c-0.54-0.54-0.81-1.27-0.81-2.2c0-1.95,0.99-2.92,2.97-2.92c0.9,0,1.61,0.26,2.14,0.79
			c0.52,0.52,0.79,1.24,0.79,2.14C51.85,253.17,50.87,254.18,48.92,254.18z"/>
		<path class="st0" d="M56.83,235.7v-5.44h4.05c1.14,0,1.95-0.25,2.43-0.74c0.48-0.49,0.72-1.33,0.72-2.49v-8.32l5.66-2.97v11.55
			c0,2.73-0.84,4.85-2.52,6.38c-1.47,1.35-3.39,2.02-5.75,2.02H56.83z M66.36,245.73c-0.9,0-1.62-0.27-2.16-0.81
			c-0.54-0.54-0.81-1.27-0.81-2.2c0-0.87,0.27-1.57,0.81-2.11c0.54-0.54,1.26-0.81,2.16-0.81s1.61,0.26,2.14,0.79
			c0.52,0.52,0.79,1.24,0.79,2.13C69.29,244.72,68.31,245.73,66.36,245.73z"/>
		<path class="st0" d="M91.98,230.26h4.05v5.44h-4.58c-1.02,0-1.96-0.13-2.83-0.4c-0.39,2.88-1.54,5.15-3.46,6.83
			c-1.74,1.5-3.82,2.25-6.25,2.25c-1.89,0-3.73-0.48-5.53-1.44V238c1.56,0.87,3.09,1.3,4.58,1.3c1.65,0,2.93-0.53,3.84-1.6
			s1.37-2.54,1.37-4.43v-14.56l3.69-1.93l1.93-1.03v0.04l0.04-0.04v11.28c0,1.17,0.24,2,0.72,2.49
			C90.04,230.02,90.84,230.26,91.98,230.26z"/>
		<path class="st0" d="M115.4,230.26h12.36l0.09,5.44h-12.99c-1.53,0-2.97-0.37-4.31-1.12c-1.41,0.75-2.85,1.12-4.32,1.12h-12.9
			v-5.44h12.23c-1.35-0.93-2.47-1.81-3.37-2.65c-0.51-0.45-1.29-1.29-2.34-2.52c-0.33-0.39-0.6-0.7-0.81-0.94v-2.56
			c1.32-2.01,3.02-3.61,5.1-4.81c2.08-1.2,4.22-1.8,6.41-1.8c2.16,0,4.28,0.61,6.38,1.82c2.1,1.21,3.83,2.84,5.21,4.88v2.47
			C120.14,226.58,117.89,228.62,115.4,230.26z M110.5,228.11c2.25-1.77,3.91-3.55,4.99-5.35c-1.8-1.68-3.49-2.52-5.08-2.52
			c-1.53,0-3.12,0.84-4.76,2.52C106.82,224.83,108.43,226.61,110.5,228.11z"/>
		<path class="st0" d="M125.16,235.7v-5.44h2.83c1.38,0,2.36-0.3,2.94-0.9c0.58-0.6,0.88-1.62,0.88-3.06v-16.59l5.62-3.01v19.64
			c0,2.91-0.88,5.23-2.65,6.97c-1.62,1.59-3.78,2.38-6.47,2.38H125.16z"/>
		<path class="st0" d="M145.52,235.7v-25.98l5.66-3.01v28.99H145.52z"/>
		<path class="st0" d="M194.92,223.39c-2.16-1.98-4.23-2.97-6.2-2.97c-0.93,0-1.69,0.26-2.27,0.79c-0.58,0.52-0.88,1.22-0.88,2.09
			c0,1.08,0.35,1.92,1.06,2.52c0.7,0.6,2.1,1.27,4.2,2.02c2.1,0.69,3.57,1.38,4.4,2.07c1.35,1.11,2.02,2.65,2.02,4.63
			c0,3.09-1.42,5.53-4.27,7.33c-2.55,1.59-5.81,2.38-9.8,2.38c-4.97,0-8.72-1.42-11.24-4.27c-1.86-2.13-2.79-4.73-2.79-7.82
			c0-2.37,0.55-4.43,1.66-6.2l5.39-1.12c-1.2,2.04-1.8,4.18-1.8,6.43c0,2.37,0.75,4.21,2.25,5.53c1.5,1.35,3.67,2.02,6.52,2.02
			c2.88,0,5.06-0.45,6.56-1.35c1.26-0.78,1.89-1.77,1.89-2.97c0-0.63-0.26-1.15-0.79-1.55c-0.52-0.4-1.6-0.89-3.21-1.46
			c-2.61-0.93-4.41-1.89-5.39-2.88c-1.35-1.35-2.02-3.13-2.02-5.35c0-2.64,0.91-4.69,2.74-6.16c1.38-1.14,2.98-1.71,4.81-1.71
			c3.06,0,5.44,1.06,7.15,3.19V223.39z M180.17,254.18c-0.9,0-1.62-0.28-2.16-0.83c-0.54-0.55-0.81-1.28-0.81-2.18
			c0-0.87,0.27-1.57,0.81-2.11c0.54-0.54,1.26-0.81,2.16-0.81c0.9,0,1.61,0.26,2.13,0.79c0.52,0.52,0.79,1.24,0.79,2.14
			C183.09,253.17,182.12,254.18,180.17,254.18z M187.09,254.18c-0.9,0-1.62-0.27-2.16-0.81c-0.54-0.54-0.81-1.27-0.81-2.2
			c0-1.95,0.99-2.92,2.97-2.92c0.9,0,1.61,0.26,2.14,0.79c0.52,0.52,0.79,1.24,0.79,2.14C190.02,253.17,189.04,254.18,187.09,254.18
			z"/>
		<path class="st0" d="M214.15,234.4c-0.93,0.18-1.89,0.27-2.88,0.27c-2.76,0-4.96-1.03-6.61-3.1c-1.35-1.74-2.02-3.83-2.02-6.29
			c0-3.3,0.9-5.89,2.7-7.78c1.59-1.68,3.69-2.52,6.29-2.52c2.67,0,4.75,0.85,6.25,2.56c1.29,1.47,1.93,3.39,1.93,5.75v9.62
			c0,3.54-0.93,6.32-2.79,8.36c-1.74,1.92-4.11,2.88-7.1,2.88c-1.89,0-3.73-0.51-5.53-1.53v-4.9c1.62,0.93,3.24,1.39,4.85,1.39
			C212.16,239.12,213.79,237.55,214.15,234.4z M214.2,223.21c0-1.98-0.85-2.97-2.56-2.97c-1.08,0-1.93,0.44-2.54,1.3
			c-0.61,0.87-0.92,2.05-0.92,3.55c0,3.18,1.14,4.76,3.42,4.76c1.2,0,2.07-0.3,2.61-0.9V223.21z"/>
		<path class="st0" d="M235.73,235.7c-2.73,0-4.84-0.87-6.34-2.61c-1.29-1.5-1.93-3.43-1.93-5.8v-17.62l5.66-2.97v20.32
			c0,1.17,0.24,2,0.72,2.49s1.29,0.74,2.43,0.74h4.04v5.44H235.73z"/>
		<path class="st0" d="M237.62,235.7v-5.44h4.76c1.14,0,1.96-0.25,2.45-0.74c0.49-0.49,0.74-1.33,0.74-2.49v-5.93l5.66-2.97v8.9
			c0,1.17,0.24,2,0.72,2.49s1.29,0.74,2.43,0.74h3.06c1.14,0,1.95-0.25,2.43-0.74c0.48-0.49,0.72-1.33,0.72-2.49v-7.1l5.66-3.01
			v10.11c0,1.17,0.25,2,0.74,2.49c0.5,0.49,1.31,0.74,2.45,0.74h3.06c1.14,0,1.95-0.25,2.43-0.74s0.72-1.33,0.72-2.49v-8.32
			l5.66-2.97v10.56c0,1.44,0.29,2.46,0.88,3.06c0.58,0.6,1.57,0.9,2.94,0.9h4.13v5.44h-4.45c-2.52,0-4.54-0.72-6.07-2.16
			c-1.35,1.41-3.16,2.13-5.44,2.16h-4.45c-2.22,0-4.03-0.66-5.44-1.98c-1.29,1.29-3,1.95-5.12,1.98h-4.45
			c-2.22,0-4.03-0.66-5.44-1.98c-1.41,1.32-3.22,1.98-5.44,1.98H237.62z"/>
		<path class="st0" d="M286.56,235.7v-5.44h4.05c1.14,0,1.95-0.25,2.43-0.74s0.72-1.33,0.72-2.49v-8.32l5.66-2.97v11.55
			c0,2.73-0.84,4.85-2.52,6.38c-1.47,1.35-3.39,2.02-5.75,2.02H286.56z M289.8,211.21c-0.9,0-1.62-0.27-2.16-0.81
			c-0.54-0.54-0.81-1.27-0.81-2.2c0-1.95,0.99-2.92,2.97-2.92c0.9,0,1.61,0.26,2.13,0.79s0.79,1.24,0.79,2.13
			C292.72,210.2,291.75,211.21,289.8,211.21z M296.72,211.21c-0.9,0-1.62-0.27-2.16-0.81c-0.54-0.54-0.81-1.27-0.81-2.2
			c0-1.95,0.99-2.92,2.97-2.92c0.9,0,1.61,0.26,2.14,0.79c0.52,0.52,0.79,1.24,0.79,2.13C299.64,210.2,298.67,211.21,296.72,211.21z
			"/>
		<path class="st0" d="M341.63,232.83c0,3.6-1.24,6.46-3.73,8.59c-2.22,1.89-5.05,2.83-8.5,2.83c-4.04,0-7.18-1.42-9.39-4.27
			c-1.74-2.22-2.61-4.82-2.61-7.82c0-2.37,0.55-4.43,1.66-6.2l5.39-1.12c-1.2,2.04-1.8,4.18-1.8,6.43c0,2.28,0.64,4.12,1.93,5.53
			c1.23,1.35,2.83,2.02,4.81,2.02c2.07,0,3.68-0.52,4.83-1.57c1.15-1.05,1.73-2.52,1.73-4.41v-14.11l5.66-2.97V232.83z
			 M329.17,216.24c-0.9,0-1.62-0.27-2.16-0.81c-0.54-0.54-0.81-1.27-0.81-2.2c0-0.87,0.27-1.57,0.81-2.11
			c0.54-0.54,1.26-0.81,2.16-0.81c0.9,0,1.61,0.26,2.14,0.79c0.52,0.52,0.79,1.24,0.79,2.13
			C332.1,215.24,331.12,216.24,329.17,216.24z"/>
		<path class="st0" d="M357.99,235.7c-2.73,0-4.84-0.87-6.34-2.61c-1.29-1.5-1.93-3.43-1.93-5.8v-17.62l5.66-2.97v20.32
			c0,1.17,0.24,2,0.72,2.49s1.29,0.74,2.43,0.74h4.04v5.44H357.99z"/>
		<path class="st0" d="M375.88,230.26h4.05v5.44h-4.58c-2.19,0-4-0.58-5.44-1.75c-1.44,1.17-3.25,1.75-5.44,1.75h-4.58v-5.44h4.05
			c1.14,0,1.95-0.25,2.43-0.74s0.72-1.33,0.72-2.49v-8.32l5.66-2.97v11.28c0,1.17,0.24,2,0.72,2.49
			C373.93,230.02,374.74,230.26,375.88,230.26z M364.24,239.79c0.9,0,1.61,0.26,2.13,0.79s0.79,1.24,0.79,2.13
			c0,2.01-0.97,3.01-2.92,3.01c-0.9,0-1.62-0.27-2.16-0.81c-0.54-0.54-0.81-1.27-0.81-2.2
			C361.27,240.77,362.26,239.79,364.24,239.79z M371.16,239.79c0.9,0,1.61,0.26,2.13,0.79s0.79,1.24,0.79,2.13
			c0,2.01-0.97,3.01-2.92,3.01c-0.9,0-1.62-0.27-2.16-0.81c-0.54-0.54-0.81-1.27-0.81-2.2
			C368.19,240.77,369.18,239.79,371.16,239.79z"/>
		<path class="st0" d="M387.79,215.88c2.25,0.18,4.22,0.85,5.93,2.02c3.06,2.07,4.58,5.05,4.58,8.95v0.58c0,2.7-0.84,4.81-2.52,6.34
			c-1.47,1.29-3.37,1.93-5.71,1.93h-12.86v-5.44h12.27c2.1,0,3.15-1.03,3.15-3.1v-0.27c0-1.62-0.62-2.94-1.87-3.96
			c-1.24-1.02-2.87-1.53-4.88-1.53c-1.5,0-3.09,0.3-4.76,0.9v-5.44l9.12-10.16h5.71L387.79,215.88z"/>
	</g>
	<g>
		<path class="st0" d="M105.66,311.33v2h-7.99c-1.45,0-2.58-0.19-3.42-0.57c-0.83-0.38-1.44-1-1.81-1.86
			c-0.38-0.86-0.57-2.06-0.57-3.58c0-1.49,0.18-2.67,0.54-3.54c0.36-0.87,0.95-1.5,1.77-1.88c0.82-0.38,1.94-0.58,3.37-0.58
			c0.69,0,1.64,0.03,2.85,0.09c1.21,0.06,2.09,0.13,2.64,0.19v9.73H105.66z M94.48,309.7c0.24,0.58,0.64,1,1.19,1.25
			c0.55,0.25,1.3,0.38,2.26,0.38h2.9v-7.84c-1.26-0.09-2.25-0.14-2.99-0.14c-0.93,0-1.66,0.13-2.2,0.39
			c-0.54,0.26-0.93,0.68-1.17,1.25c-0.24,0.57-0.35,1.35-0.35,2.32C94.11,308.32,94.23,309.12,94.48,309.7z M95.52,297.07h2v2.29h-2
			V297.07z M98.68,297.07h1.98v2.29h-1.98V297.07z"/>
		<path class="st0" d="M114.91,311.33v2h-9.26v-2h3.51v-9.78h2.24v9.78H114.91z M107.68,315.21h2v2.26h-2V315.21z M110.84,315.21
			h1.98v2.26h-1.98V315.21z"/>
		<path class="st0" d="M124.17,311.33v2h-9.26v-2h3.51v-9.78h2.24v9.78H124.17z M116.96,297.07h2v2.29h-2V297.07z M120.12,297.07
			h1.98v2.29h-1.98V297.07z"/>
		<path class="st0" d="M138.28,311.33v2h-14.11v-2h9.28v-5.79c0-1.51-0.77-2.26-2.31-2.26c-0.69,0-2.32,0.13-4.88,0.38l-0.07-1.58
			c0.85-0.2,1.8-0.38,2.86-0.53c1.06-0.15,1.94-0.22,2.63-0.22c1.24,0,2.21,0.3,2.92,0.91c0.71,0.6,1.06,1.63,1.06,3.07v6.03H138.28
			z"/>
		<path class="st0" d="M147.54,311.33v2h-9.26v-2h3.51v-9.78h2.24v9.78H147.54z M140.33,297.07h2v2.29h-2V297.07z M143.49,297.07
			h1.98v2.29h-1.98V297.07z"/>
		<path class="st0" d="M152.68,296.55v16.77h-5.14v-2h2.9v-14.77H152.68z"/>
		<path class="st0" d="M156.78,296.55h2.24v16.77h-2.24V296.55z"/>
		<path class="st0" d="M181.04,311.33v2h-7.99c-1.45,0-2.58-0.19-3.42-0.57c-0.83-0.38-1.44-1-1.81-1.86
			c-0.38-0.86-0.57-2.06-0.57-3.58c0-1.49,0.18-2.67,0.54-3.54c0.36-0.87,0.95-1.5,1.77-1.88c0.82-0.38,1.94-0.58,3.37-0.58
			c0.69,0,1.64,0.03,2.85,0.09c1.21,0.06,2.09,0.13,2.64,0.19v9.73H181.04z M169.86,309.7c0.24,0.58,0.64,1,1.19,1.25
			c0.55,0.25,1.3,0.38,2.26,0.38h2.9v-7.84c-1.26-0.09-2.25-0.14-2.99-0.14c-0.93,0-1.66,0.13-2.2,0.39
			c-0.54,0.26-0.93,0.68-1.17,1.25c-0.24,0.57-0.35,1.35-0.35,2.32C169.5,308.32,169.62,309.12,169.86,309.7z M170.91,297.07h2v2.29
			h-2V297.07z M174.07,297.07h1.98v2.29h-1.98V297.07z"/>
		<path class="st0" d="M190.3,311.33v2h-9.26v-2h3.51v-9.78h2.24v9.78H190.3z M183.07,315.21h2v2.26h-2V315.21z M186.22,315.21h1.98
			v2.26h-1.98V315.21z"/>
		<path class="st0" d="M199.56,311.33v2h-9.26v-2h3.51v-9.78h2.24v9.78H199.56z M193.86,297.05H196v2.31h-2.14V297.05z"/>
		<path class="st0" d="M208.82,311.33v2h-9.26v-2h3.51v-9.78h2.24v9.78H208.82z M203.11,315.21h2.14v2.31h-2.14V315.21z"/>
		<path class="st0" d="M213.95,296.55v16.77h-5.14v-2h2.9v-14.77H213.95z"/>
		<path class="st0" d="M218.05,296.55h2.24v16.77h-2.24V296.55z"/>
		<path class="st0" d="M231,301.25c0.93,0.1,1.7,0.22,2.3,0.34v10.08c0,2.37-0.31,4.21-0.93,5.52c-0.62,1.31-1.78,1.97-3.47,1.97
			c-0.66,0-1.9-0.13-3.72-0.38v-2c1.54,0.25,2.72,0.38,3.56,0.38c0.53,0,0.97-0.09,1.3-0.28s0.58-0.56,0.75-1.12
			s0.26-1.37,0.26-2.44h-3.23c-1.82,0-3.02-0.56-3.59-1.67s-0.86-2.5-0.86-4.15c0.02-1.55,0.18-2.79,0.51-3.72
			c0.32-0.93,0.86-1.61,1.6-2.04c0.75-0.43,1.76-0.65,3.05-0.65C229.23,301.1,230.06,301.15,231,301.25z M226.16,310.23
			c0.38,0.73,1.17,1.09,2.38,1.09h2.52v-8.06c-0.77-0.11-1.45-0.17-2.05-0.17c-1.27,0-2.16,0.33-2.65,1
			c-0.5,0.67-0.75,1.78-0.77,3.33C225.59,308.57,225.78,309.5,226.16,310.23z"/>
		<path class="st0" d="M256.59,301.55v11.78h-9.21c-1.45,0-2.62-0.12-3.53-0.35s-1.6-0.65-2.06-1.24c-0.46-0.59-0.69-1.41-0.69-2.46
			c0-0.66,0.07-1.47,0.22-2.43s0.32-1.87,0.51-2.73l1.77,0.09l-0.21,1.74c-0.19,1.32-0.28,2.25-0.28,2.8c0,0.91,0.3,1.57,0.91,1.97
			s1.69,0.6,3.26,0.6h7.09v-9.78H256.59z M246.56,299.26h2v2.29h-2V299.26z M249.71,299.26h1.98v2.29h-1.98V299.26z"/>
		<path class="st0" d="M270.89,296.55v16.77h-11.54v-2h2.99v-11.59h2.24v11.59h4.1v-14.77H270.89z"/>
		<path class="st0" d="M281.29,301.25c0.93,0.1,1.7,0.22,2.3,0.34v10.08c0,2.37-0.31,4.21-0.93,5.52c-0.62,1.31-1.78,1.97-3.47,1.97
			c-0.66,0-1.9-0.13-3.72-0.38v-2c1.54,0.25,2.72,0.38,3.56,0.38c0.53,0,0.97-0.09,1.3-0.28s0.58-0.56,0.75-1.12
			s0.26-1.37,0.26-2.44h-3.23c-1.82,0-3.02-0.56-3.59-1.67s-0.86-2.5-0.86-4.15c0.02-1.55,0.18-2.79,0.51-3.72
			c0.32-0.93,0.86-1.61,1.6-2.04c0.75-0.43,1.76-0.65,3.05-0.65C279.53,301.1,280.36,301.15,281.29,301.25z M276.45,310.23
			c0.38,0.73,1.17,1.09,2.38,1.09h2.52v-8.06c-0.77-0.11-1.45-0.17-2.05-0.17c-1.27,0-2.16,0.33-2.65,1
			c-0.5,0.67-0.75,1.78-0.77,3.33C275.89,308.57,276.07,309.5,276.45,310.23z"/>
		<path class="st0" d="M291.46,311.33v2h-4.48v-16.77h2.24v14.77H291.46z"/>
		<path class="st0" d="M306.09,311.33v2h-14.63v-2h3.06c-0.36-0.89-0.54-2.15-0.54-3.77c0-1.56,0.19-2.76,0.57-3.62
			c0.38-0.86,0.98-1.46,1.8-1.83c0.82-0.36,1.97-0.54,3.45-0.54c1.22,0,2.33,0.06,3.32,0.17l0.83,0.09v9.49H306.09z M296.43,310.04
			c0.14,0.53,0.32,0.95,0.54,1.28h4.74v-7.7c-0.97-0.08-1.66-0.12-2.05-0.12c-0.94,0-1.66,0.13-2.14,0.4
			c-0.49,0.27-0.82,0.7-1.01,1.3c-0.19,0.6-0.28,1.44-0.28,2.52C296.22,308.74,296.29,309.52,296.43,310.04z M296.59,297.07h2v2.29
			h-2V297.07z M299.75,297.07h1.98v2.29h-1.98V297.07z"/>
		<path class="st0" d="M322.77,311.33v2h-0.92c-0.28,0-0.58-0.09-0.9-0.27s-0.58-0.41-0.8-0.7v0.97h-14.06v-2h3.82
			c-0.22-1.29-0.33-2.55-0.33-3.79c0-0.99,0.07-1.99,0.21-3c0.14-1.01,0.3-1.86,0.47-2.53c0.42-0.17,1.01-0.33,1.75-0.47
			s1.55-0.21,2.42-0.21c2.04,0,3.51,0.48,4.39,1.44c0.89,0.96,1.33,2.52,1.33,4.69v2.92c0.17,0.28,0.4,0.51,0.7,0.7
			c0.29,0.18,0.62,0.27,1,0.27H322.77z M311.89,309.64c0.07,0.7,0.14,1.26,0.22,1.68h5.79v-3.93c0-1.45-0.3-2.49-0.91-3.12
			c-0.6-0.64-1.57-0.95-2.89-0.95c-0.67,0-1.33,0.07-1.98,0.21c-0.24,1.45-0.35,2.78-0.35,4.01
			C311.79,308.24,311.82,308.94,311.89,309.64z"/>
		<path class="st0" d="M330.73,311.33v2h-7.96v-2h2.9v-14.77h2.24v14.77H330.73z"/>
		<path class="st0" d="M335.87,296.55v16.77h-5.14v-2h2.9v-14.77H335.87z"/>
	</g>
	<g>
		<path class="st0" d="M31.37,281.01v-19.38h4.46v9.05l8.58-9.05h4.98l-8.03,8.64l8.5,10.74h-5.23l-6.23-7.61l-2.57,2.71v4.9H31.37z
			"/>
		<path class="st0" d="M48.45,281.01l8.64-19.38h4.43l8.67,19.38h-4.71l-1.72-4.15h-9l-1.72,4.15H48.45z M56.18,273.45h6.17
			l-3.07-7.39L56.18,273.45z"/>
		<path class="st0" d="M75.56,281.01v-6.89l-7.5-12.49h4.76l5.15,8.61l5.21-8.61h4.4l-7.53,12.51v6.87H75.56z"/>
		<path class="st0" d="M85.44,281.01l8.64-19.38h4.43l8.67,19.38h-4.71l-1.72-4.15h-9l-1.72,4.15H85.44z M93.17,273.45h6.17
			l-3.07-7.39L93.17,273.45z"/>
		<path class="st0" d="M109.2,281.01v-19.38h3.71l9.64,11.79v-11.79h4.43v19.38h-3.68l-9.66-11.79v11.79H109.2z"/>
		<path class="st0" d="M143.42,281.01v-15.73h-6.2v-3.65h16.89v3.65h-6.2v15.73H143.42z"/>
		<path class="st0" d="M153,281.01l8.64-19.38h4.43l8.67,19.38h-4.71l-1.72-4.15h-9l-1.72,4.15H153z M160.72,273.45h6.17l-3.07-7.39
			L160.72,273.45z"/>
		<path class="st0" d="M183.12,281.34c-1.55,0-3.04-0.21-4.46-0.62c-1.42-0.42-2.57-0.96-3.43-1.62l1.52-3.38
			c0.81,0.59,1.79,1.08,2.94,1.45c1.14,0.38,2.3,0.57,3.46,0.57c1.33,0,2.28-0.19,2.87-0.58s0.87-0.89,0.87-1.5
			c0-0.52-0.2-0.93-0.61-1.23c-0.41-0.3-0.95-0.55-1.62-0.75c-0.67-0.19-1.41-0.38-2.2-0.55s-1.59-0.39-2.39-0.64
			c-0.8-0.25-1.54-0.58-2.22-1s-1.21-0.96-1.62-1.63c-0.41-0.67-0.61-1.52-0.61-2.53c0-1.11,0.3-2.12,0.9-3.03
			c0.6-0.91,1.5-1.64,2.71-2.19s2.73-0.82,4.55-0.82c1.22,0,2.42,0.15,3.6,0.44c1.18,0.3,2.22,0.72,3.13,1.27l-1.38,3.41
			c-0.9-0.52-1.81-0.9-2.73-1.15s-1.8-0.37-2.64-0.37c-1.33,0-2.28,0.22-2.84,0.65c-0.56,0.43-0.84,0.96-0.84,1.56
			c0,0.5,0.2,0.9,0.61,1.21c0.41,0.3,0.94,0.55,1.61,0.75c0.66,0.19,1.4,0.37,2.2,0.54c0.8,0.17,1.61,0.37,2.41,0.62
			c0.8,0.25,1.54,0.58,2.22,0.98c0.67,0.41,1.21,0.94,1.62,1.61c0.41,0.66,0.61,1.5,0.61,2.52c0,1.09-0.3,2.09-0.9,2.99
			c-0.6,0.9-1.51,1.63-2.73,2.19S184.97,281.34,183.12,281.34z"/>
		<path class="st0" d="M191.87,281.01l8.64-19.38h4.43l8.67,19.38h-4.71l-1.72-4.15h-9l-1.72,4.15H191.87z M199.6,273.45h6.17
			l-3.07-7.39L199.6,273.45z"/>
		<path class="st0" d="M219.25,281.01l-6.37-19.38h4.65l4.37,13.62l4.57-13.62h4.15l4.43,13.73l4.51-13.73h4.29l-6.34,19.38h-4.82
			l-4.26-13.12l-4.4,13.12H219.25z"/>
		<path class="st0" d="M246.36,281.01v-19.38h4.49v19.38H246.36z"/>
		<path class="st0" d="M260.73,281.01l8.64-19.38h4.43l8.67,19.38h-4.71l-1.72-4.15h-9l-1.72,4.15H260.73z M268.45,273.45h6.17
			l-3.07-7.39L268.45,273.45z"/>
		<path class="st0" d="M284.48,281.01v-19.38h4.49v15.73h9.72v3.65H284.48z"/>
		<path class="st0" d="M306.5,281.01l8.64-19.38h4.43l8.67,19.38h-4.71l-1.72-4.15h-9l-1.72,4.15H306.5z M314.22,273.45h6.17
			l-3.07-7.39L314.22,273.45z"/>
		<path class="st0" d="M330.25,281.01v-19.38h8.28c2.7,0,4.79,0.63,6.29,1.88c1.5,1.25,2.24,2.97,2.24,5.15
			c0,1.44-0.35,2.68-1.04,3.72c-0.69,1.04-1.67,1.84-2.92,2.4l4.32,6.23h-4.82l-3.74-5.4c-0.07,0-0.15,0-0.22,0h-3.9v5.4H330.25z
			 M334.74,272.04h3.66c1.37,0,2.39-0.3,3.09-0.9s1.04-1.43,1.04-2.48c0-1.07-0.35-1.9-1.04-2.49c-0.69-0.59-1.72-0.89-3.09-0.89
			h-3.66V272.04z"/>
		<path class="st0" d="M348.05,281.01l8.64-19.38h4.43l8.67,19.38h-4.71l-1.72-4.15h-9l-1.72,4.15H348.05z M355.78,273.45h6.17
			l-3.07-7.39L355.78,273.45z"/>
		<path class="st0" d="M371.81,281.01v-19.38h9.47c2.44,0,4.27,0.46,5.5,1.38c1.23,0.92,1.84,2.14,1.84,3.66
			c0,0.98-0.23,1.83-0.68,2.55s-1.08,1.29-1.87,1.72c1.07,0.35,1.92,0.93,2.56,1.74c0.64,0.81,0.96,1.83,0.96,3.05
			c0,1.66-0.66,2.96-1.97,3.89c-1.31,0.93-3.24,1.4-5.79,1.4H371.81z M376.27,269.57h4.46c2.25,0,3.38-0.77,3.38-2.3
			c0-1.51-1.13-2.27-3.38-2.27h-4.46V269.57z M376.27,277.63h5.23c1.16,0,2.05-0.19,2.66-0.57s0.91-0.98,0.91-1.81
			c0-1.61-1.19-2.41-3.57-2.41h-5.23V277.63z"/>
		<path class="st0" d="M392.99,281.01v-19.38h4.49v19.38H392.99z"/>
	</g>
	<rect x="29.07" y="304.33" class="st0" width="55.12" height="3.06"/>
	<rect x="344.65" y="304.33" class="st0" width="55.12" height="3.06"/>
</g>
</svg>
